<svg width="40" height="40" viewBox="0 0 40 40" fill="none" xmlns="http://www.w3.org/2000/svg">
<g clip-path="url(#clip0_874_2041)">
<path fill-rule="evenodd" clip-rule="evenodd" d="M22.5155 4.53244L25.5286 0L34.0709 4.28433L31.0589 8.81578C30.5299 9.61072 31.3217 10.5773 32.3592 10.4037L38.1318 9.43605L40 17.8489L34.2274 18.8155C24.8899 20.3796 17.761 11.6859 22.5155 4.53244Z" fill="#3A724F"/>
<path fill-rule="evenodd" clip-rule="evenodd" d="M17.4849 35.4676L14.4717 40L5.9281 35.7167L8.94128 31.1842C9.47033 30.3893 8.67847 29.4227 7.63979 29.5963L1.86824 30.563L0 22.1511L5.77269 21.1845C15.1105 19.6204 22.2384 28.3141 17.4849 35.4676Z" fill="#DC8E43"/>
<path fill-rule="evenodd" clip-rule="evenodd" d="M17.4827 4.53244L14.4707 0L5.92698 4.28433L8.94018 8.81578C9.46809 9.61072 8.67737 10.5773 7.63869 10.4037L1.86597 9.43605L0 17.8489L5.77158 18.8155C15.1105 20.3796 22.2396 11.6859 17.4839 4.53244H17.4827Z" fill="#14424C"/>
<path fill-rule="evenodd" clip-rule="evenodd" d="M22.5174 35.4676L25.5283 40L34.0719 35.7167L31.0587 31.1842C30.5308 30.3893 31.3215 29.4227 32.3602 29.5963L38.1318 30.563L40 22.1511L34.2273 21.1845C24.8895 19.6204 17.7616 28.3141 22.5151 35.4676H22.5174Z" fill="#C85D1B"/>
</g>
<defs>
<clipPath id="clip0_874_2041">
<rect width="40" height="40" fill="white"/>
</clipPath>
</defs>
</svg>
