<svg width="40" height="40" viewBox="0 0 40 40" fill="none" xmlns="http://www.w3.org/2000/svg">
<g clip-path="url(#clip0_874_2047)">
<path fill-rule="evenodd" clip-rule="evenodd" d="M25.4292 11.6853C23.7928 10.5865 21.869 10 19.901 10V0C23.837 0 27.6847 1.17298 30.9574 3.37061C34.2301 5.56823 36.7808 8.69181 38.2871 12.3463C39.7933 16.0008 40.1875 20.0222 39.4196 23.9018C38.6517 27.7814 36.7563 31.3451 33.9731 34.1421C31.1899 36.9392 27.6439 38.844 23.7835 39.6157C19.9231 40.3874 15.9216 39.9913 12.2852 38.4776C8.64877 36.9638 5.54066 34.4004 3.35392 31.1114C1.16717 27.8224 0 23.9556 0 20H9.95049C9.95049 21.9778 10.5341 23.9112 11.6275 25.5557C12.7208 27.2002 14.2749 28.4819 16.0931 29.2388C17.9113 29.9957 19.912 30.1937 21.8422 29.8078C23.7724 29.422 25.5454 28.4696 26.9371 27.0711C28.3287 25.6725 29.2763 23.8907 29.6602 21.9509C30.0442 20.0111 29.8472 18.0004 29.0941 16.1732C28.3409 14.3459 27.0655 12.7841 25.4292 11.6853Z" fill="#007DFC"/>
<path fill-rule="evenodd" clip-rule="evenodd" d="M9.95049 5.28493e-06C9.95049 1.31322 9.69312 2.61358 9.19306 3.82684C8.693 5.04009 7.96005 6.14248 7.03606 7.07107C6.11208 7.99966 5.01514 8.73625 3.80789 9.2388C2.60064 9.74134 1.30671 10 4.34946e-07 10L0 20C2.61343 20 5.20128 19.4827 7.61579 18.4776C10.0303 17.4725 12.2242 15.9993 14.0721 14.1421C15.9201 12.285 17.386 10.0802 18.3861 7.65367C19.3862 5.22715 19.901 2.62643 19.901 0L9.95049 5.28493e-06Z" fill="#007DFC"/>
</g>
<defs>
<clipPath id="clip0_874_2047">
<rect width="40" height="40" fill="white"/>
</clipPath>
</defs>
</svg>
