<svg width="40" height="40" viewBox="0 0 40 40" fill="none" xmlns="http://www.w3.org/2000/svg">
<g clip-path="url(#clip0_874_2089)">
<path d="M23.32 7.483C22.711 6.012 21.818 4.676 20.693 3.551C19.568 2.426 18.231 1.533 16.761 0.924C15.289 0.313 13.713 0 12.121 0C11.762 0 11.406 0.021 11.05 0.053C10.944 0.063 10.839 0.076 10.734 0.088C10.472 0.118 10.211 0.157 9.95198 0.204C9.84798 0.223 9.74398 0.24 9.63998 0.262C9.29298 0.335 8.94798 0.417 8.60898 0.52C8.60698 0.52 8.60498 0.52 8.60298 0.522C8.26098 0.626 7.92598 0.749 7.59498 0.883C7.55798 0.898 7.51998 0.908 7.48298 0.923C7.42198 0.948 7.36598 0.981 7.30598 1.007C7.06298 1.112 6.82398 1.226 6.58698 1.347C6.49298 1.395 6.39798 1.442 6.30498 1.493C5.99298 1.664 5.68598 1.844 5.38898 2.042C5.38698 2.043 5.38598 2.044 5.38398 2.045C5.08798 2.243 4.80398 2.458 4.52798 2.68C4.44498 2.747 4.36498 2.817 4.28298 2.886C4.08198 3.057 3.88598 3.234 3.69698 3.417C3.64898 3.463 3.59698 3.503 3.54998 3.55C3.52098 3.579 3.49698 3.611 3.46898 3.64C3.21898 3.895 2.97698 4.156 2.75098 4.432C2.74898 4.435 2.74698 4.437 2.74498 4.44C2.52098 4.713 2.31298 4.999 2.11398 5.291C2.05498 5.378 1.99898 5.467 1.94198 5.556C1.79898 5.778 1.66398 6.004 1.53498 6.234C1.48298 6.327 1.43098 6.419 1.38098 6.513C1.21598 6.828 1.06098 7.148 0.923977 7.478L0.921977 7.482V7.486C0.783977 7.816 0.666977 8.153 0.560977 8.492C0.528977 8.593 0.501977 8.695 0.472977 8.796C0.399977 9.05 0.336977 9.306 0.280977 9.563C0.258977 9.667 0.234977 9.77 0.214977 9.874C0.149977 10.222 0.0939766 10.572 0.0589766 10.924C0.0589766 10.926 0.0589766 10.929 0.0589766 10.931C0.0239766 11.286 0.00997656 11.643 0.00697656 12C0.00697656 12.04 0.000976562 12.08 0.000976562 12.12H0.00797656C0.00797656 12.91 0.0779766 13.702 0.233977 14.485C0.701977 16.836 1.85598 18.996 3.55098 20.691C5.24598 22.386 7.40598 23.54 9.75698 24.008C12.108 24.476 14.545 24.236 16.76 23.318C18.975 22.401 20.868 20.847 22.2 18.854C23.532 16.861 24.243 14.517 24.243 12.12C24.243 10.528 23.93 8.952 23.32 7.481V7.483ZM15.145 14.141C14.746 14.739 14.177 15.205 13.513 15.48C12.848 15.755 12.117 15.827 11.412 15.687C10.706 15.547 10.059 15.2 9.54998 14.692C9.04098 14.183 8.69498 13.536 8.55498 12.83C8.50098 12.556 8.48798 12.279 8.49698 12.003C8.50198 11.844 8.51798 11.686 8.54398 11.529C8.55398 11.467 8.56298 11.405 8.57598 11.343C8.62198 11.134 8.67998 10.927 8.76198 10.729C8.84398 10.53 8.94898 10.343 9.06398 10.163C9.09798 10.11 9.13598 10.06 9.17298 10.009C9.26498 9.88 9.36598 9.758 9.47398 9.642C9.51698 9.596 9.55898 9.549 9.60498 9.505C9.91498 9.207 10.274 8.967 10.667 8.795C10.725 8.77 10.784 8.749 10.843 8.727C10.992 8.671 11.144 8.625 11.299 8.589C11.36 8.575 11.421 8.559 11.483 8.548C11.694 8.51 11.907 8.485 12.122 8.485C12.6 8.485 13.072 8.579 13.514 8.762C13.955 8.945 14.356 9.213 14.694 9.55C15.032 9.888 15.299 10.289 15.482 10.73C15.665 11.171 15.759 11.644 15.759 12.122C15.759 12.841 15.546 13.544 15.146 14.142L15.145 14.141Z" fill="url(#paint0_linear_874_2089)"/>
<path d="M22.2001 34.6131C23.5321 32.6201 24.2431 30.2761 24.2431 27.8791H15.7581C15.7581 28.5981 15.5451 29.3011 15.1451 29.8991C14.7461 30.4971 14.1781 30.9631 13.5131 31.2381C12.8481 31.5131 12.1171 31.5851 11.4121 31.4451C10.7071 31.3051 10.0591 30.9581 9.55011 30.4501C9.04111 29.9411 8.69511 29.2941 8.55511 28.5881C8.41511 27.8821 8.48711 27.1511 8.76211 26.4871C9.03711 25.8231 9.50311 25.2551 10.1011 24.8551C10.6981 24.4561 11.3991 24.2431 12.1161 24.2421H12.1211V15.7571H12.1181C9.72211 15.7571 7.37911 16.4681 5.38711 17.8001C4.45911 18.4201 3.62711 19.1611 2.91011 20.0001C2.08611 20.9641 1.41311 22.0561 0.923112 23.2401C0.00511128 25.4551 -0.234888 27.8921 0.233112 30.2431C0.701112 32.5941 1.85511 34.7541 3.55011 36.4491C5.24511 38.1441 7.40511 39.2991 9.75611 39.7661C12.1071 40.2341 14.5441 39.9941 16.7591 39.0761C18.9741 38.1591 20.8671 36.6051 22.1991 34.6121L22.2001 34.6131Z" fill="url(#paint1_linear_874_2089)"/>
<path d="M27.8789 15.7581C31.0939 15.7581 34.1769 17.0351 36.4499 19.3081C38.7229 21.5811 39.9999 24.6641 39.9999 27.8791C39.9999 31.0941 38.7229 34.1771 36.4499 36.4501C34.1769 38.7231 31.0939 40.0001 27.8789 40.0001V31.5151C28.8429 31.5151 29.7679 31.1321 30.4499 30.4501C31.1319 29.7681 31.5149 28.8431 31.5149 27.8791C31.5149 26.9151 31.1319 25.9901 30.4499 25.3081C29.7679 24.6261 28.8429 24.2431 27.8789 24.2431V15.7581Z" fill="url(#paint2_linear_874_2089)"/>
<path d="M27.8788 40.0001C24.6638 40.0001 21.5808 38.7231 19.3078 36.4501C17.0348 34.1771 15.7578 31.0941 15.7578 27.8791C15.7578 24.6641 17.0348 21.5811 19.3078 19.3081C21.5808 17.0351 24.6638 15.7581 27.8788 15.7581V24.2431C26.9148 24.2431 25.9898 24.6261 25.3078 25.3081C24.6258 25.9901 24.2428 26.9151 24.2428 27.8791C24.2428 28.8431 24.6258 29.7681 25.3078 30.4501C25.9898 31.1321 26.9148 31.5151 27.8788 31.5151V40.0001Z" fill="#1DC2C6"/>
<path d="M24.2421 12.1211H15.7571C15.7571 12.1511 15.7571 12.1811 15.7561 12.2111C15.7451 12.6561 15.6521 13.0971 15.4801 13.5131C15.3881 13.7341 15.2761 13.9451 15.1441 14.1421C15.1271 14.1671 15.1101 14.1921 15.0931 14.2161C14.8371 14.5801 14.5141 14.8951 14.1411 15.1451C13.9421 15.2781 13.7311 15.3901 13.5121 15.4811C13.4841 15.4931 13.4561 15.5041 13.4281 15.5141C13.0131 15.6741 12.5701 15.7571 12.1201 15.7571V24.2421C13.7191 24.2421 15.2951 23.9261 16.7591 23.3191C16.8041 23.3011 16.8481 23.2821 16.8921 23.2631C17.5741 22.9711 18.2311 22.6151 18.8541 22.1991C20.1841 21.3101 21.3181 20.1721 22.1981 18.8551C22.2251 18.8151 22.2511 18.7751 22.2781 18.7341C22.6831 18.1121 23.0321 17.4511 23.3181 16.7591C23.9301 15.2811 24.2411 13.7051 24.2411 12.1201L24.2421 12.1211Z" fill="#9BE183"/>
<path d="M15.7578 12.1211C15.7578 9.72411 16.4688 7.38011 17.8008 5.38711C19.1328 3.39411 21.0258 1.84011 23.2408 0.923111C25.4548 0.00511122 27.8928 -0.234888 30.2438 0.233112C32.5948 0.701112 34.7548 1.85511 36.4498 3.55011C38.1448 5.24511 39.2998 7.40511 39.7668 9.75611C40.2348 12.1071 39.9948 14.5441 39.0768 16.7591C38.1598 18.9741 36.6058 20.8671 34.6128 22.1991C32.6198 23.5311 30.2758 24.2421 27.8788 24.2421V15.7571C28.5978 15.7571 29.3008 15.5441 29.8988 15.1441C30.4968 14.7451 30.9628 14.1771 31.2378 13.5121C31.5128 12.8471 31.5848 12.1161 31.4448 11.4111C31.3048 10.7061 30.9578 10.0581 30.4498 9.54911C29.9408 9.04011 29.2938 8.69411 28.5878 8.55411C27.8828 8.41411 27.1508 8.48611 26.4868 8.76111C25.8228 9.03611 25.2548 9.50211 24.8548 10.1001C24.4548 10.6981 24.2418 11.4011 24.2418 12.1201H15.7568L15.7578 12.1211Z" fill="url(#paint3_linear_874_2089)"/>
</g>
<defs>
<linearGradient id="paint0_linear_874_2089" x1="33.562" y1="5.112" x2="6.90198" y2="13.828" gradientUnits="userSpaceOnUse">
<stop offset="0.637" stop-color="#F16930"/>
<stop offset="0.959" stop-color="#F8C70E"/>
</linearGradient>
<linearGradient id="paint1_linear_874_2089" x1="10.7451" y1="27.7301" x2="22.7451" y2="31.2301" gradientUnits="userSpaceOnUse">
<stop stop-color="#9BE183"/>
<stop offset="1" stop-color="#256B52"/>
</linearGradient>
<linearGradient id="paint2_linear_874_2089" x1="32.5" y1="30.0001" x2="29.6599" y2="22.3461" gradientUnits="userSpaceOnUse">
<stop stop-color="#1DC2C6"/>
<stop offset="1" stop-color="#23336B"/>
</linearGradient>
<linearGradient id="paint3_linear_874_2089" x1="32.7458" y1="16.3871" x2="27" y2="10.0001" gradientUnits="userSpaceOnUse">
<stop offset="0.245" stop-color="#1DC1C5"/>
<stop offset="1" stop-color="#9CE182"/>
</linearGradient>
<clipPath id="clip0_874_2089">
<rect width="40" height="40" fill="white"/>
</clipPath>
</defs>
</svg>
