<svg width="40" height="40" viewBox="0 0 40 40" fill="none" xmlns="http://www.w3.org/2000/svg">
<g clip-path="url(#clip0_874_2120)">
<path fill-rule="evenodd" clip-rule="evenodd" d="M8.44687 3.79649C7.05048 4.77245 5.78777 5.92635 4.69162 7.2253C9.17099 6.80962 14.8619 7.48837 21.4689 10.7905C28.5244 14.3165 34.2058 14.4357 38.1598 13.6734C37.801 12.5876 37.3492 11.5441 36.8143 10.5521C32.288 11.0293 26.4854 10.3977 19.723 7.01806C15.4288 4.87191 11.6435 3.98785 8.44687 3.79649ZM34.1703 6.79042C30.5959 2.79857 25.4014 0.286377 19.6199 0.286377C17.9221 0.286377 16.2747 0.503067 14.7042 0.91026C16.8313 1.49036 19.0908 2.33905 21.4689 3.52761C26.42 6.00201 30.6945 6.79872 34.1703 6.79042ZM39.0051 17.4845C34.2283 18.4273 27.6321 18.2337 19.723 14.2809C12.3288 10.5855 6.44373 10.632 2.4746 11.5137C2.26973 11.5591 2.06968 11.6069 1.87446 11.6567C1.3548 12.7864 0.939995 13.9743 0.642367 15.2078C0.96025 15.1229 1.28873 15.0423 1.62765 14.9669C6.44289 13.8974 13.2464 13.9438 21.4689 18.0533C28.8632 21.7487 34.7483 21.7022 38.7175 20.8205C38.8534 20.7904 38.9874 20.7591 39.1192 20.7269C39.1337 20.4193 39.1409 20.1098 39.1409 19.7985C39.1409 19.0156 39.0948 18.2434 39.0051 17.4845ZM38.4818 24.8447C33.7514 25.6713 27.3473 25.3541 19.723 21.5437C12.3288 17.8483 6.44373 17.8948 2.4746 18.7765C1.59357 18.9721 0.801011 19.2105 0.101859 19.4621C0.0999526 19.574 0.098999 19.6862 0.098999 19.7985C0.098999 30.5748 8.83881 39.3107 19.6199 39.3107C28.6553 39.3107 36.2569 33.175 38.4818 24.8447Z" fill="#7F57F1"/>
</g>
<defs>
<clipPath id="clip0_874_2120">
<rect width="40" height="40" fill="white"/>
</clipPath>
</defs>
</svg>
