<svg viewBox="0 0 1050 499" fill="none" xmlns="http://www.w3.org/2000/svg">
<path d="M45.8097 1.5H1005.53C1017.21 1.5 1021.45 16.9137 1011.4 22.8857L735.529 186.849C733.751 187.906 731.722 188.463 729.654 188.463H337.297C335.322 188.463 333.381 187.955 331.659 186.986L40.1716 23.0231C29.8574 17.2213 33.9756 1.5 45.8097 1.5Z" stroke="#462E8E"/>
<path d="M842.346 1L653 188.666" stroke="#462E8E"/>
<path d="M689.192 1L607 188.332" stroke="#462E8E"/>
<path d="M578.802 1V188.332" stroke="#462E8E"/>
<path d="M469.406 1L537.5 188.332" stroke="#462E8E"/>
<path d="M320.23 1L500.5 189" stroke="#462E8E"/>
<path d="M167.077 1L459 188.666" stroke="#462E8E"/>
<path d="M105.418 58.1194H954.726" stroke="#462E8E"/>
<path d="M206.857 116.568H857.264" stroke="#462E8E"/>
<path d="M1004.53 498L42.6119 498C31.0002 498 26.7056 482.749 36.6108 476.69L313.631 307.228C315.437 306.123 317.514 305.538 319.632 305.538L711.826 305.538C713.85 305.538 715.837 306.072 717.588 307.085L1010.29 476.548C1020.46 482.439 1016.28 498 1004.53 498Z" stroke="#462E8E"/>
<path d="M206.857 498.5L396.203 305.344" stroke="#462E8E"/>
<path d="M360.011 498.5L442.203 305.687" stroke="#462E8E"/>
<path d="M470.4 498.5L470.4 305.687" stroke="#462E8E"/>
<path d="M579.797 498.5L511.704 305.687" stroke="#462E8E"/>
<path d="M728.973 498.5L548.703 305" stroke="#462E8E"/>
<path d="M882.126 498.5L590.203 305.344" stroke="#462E8E"/>
<path d="M943.785 439.709L94.4775 439.709" stroke="#462E8E"/>
<path d="M842.346 379.552L191.939 379.551" stroke="#462E8E"/>
</svg>
