<svg width="339" height="80" viewBox="0 0 339 80" fill="none" xmlns="http://www.w3.org/2000/svg">
<rect x="158.456" y="8.30884" width="7.68272" height="7.68272" rx="0.96034" transform="rotate(-90 158.456 8.30884)" fill="#10101F"/>
<rect x="172.861" y="8.30884" width="7.68272" height="7.68272" rx="0.96034" transform="rotate(-90 172.861 8.30884)" fill="#10101F"/>
<rect x="144.051" y="19.8328" width="7.68272" height="7.68272" rx="0.96034" transform="rotate(-90 144.051 19.8328)" fill="#10101F"/>
<rect x="158.456" y="19.8328" width="7.68272" height="7.68272" rx="0.96034" transform="rotate(-90 158.456 19.8328)" fill="#10101F"/>
<rect x="172.861" y="19.8328" width="7.68272" height="7.68272" rx="0.96034" transform="rotate(-90 172.861 19.8328)" fill="#10101F"/>
<rect x="187.266" y="19.8328" width="7.68272" height="7.68272" rx="0.96034" transform="rotate(-90 187.266 19.8328)" fill="#10101F"/>
<rect x="115.241" y="31.3569" width="7.68272" height="7.68272" rx="0.96034" transform="rotate(-90 115.241 31.3569)" fill="#10101F"/>
<rect x="129.646" y="31.3569" width="7.68272" height="7.68272" rx="0.96034" transform="rotate(-90 129.646 31.3569)" fill="#10101F"/>
<rect x="144.051" y="31.3569" width="7.68272" height="7.68272" rx="0.96034" transform="rotate(-90 144.051 31.3569)" fill="#10101F"/>
<rect x="158.456" y="31.3569" width="7.68272" height="7.68272" rx="0.96034" transform="rotate(-90 158.456 31.3569)" fill="#10101F"/>
<rect x="172.861" y="31.3569" width="7.68272" height="7.68272" rx="0.96034" transform="rotate(-90 172.861 31.3569)" fill="#10101F"/>
<rect x="187.266" y="31.3569" width="7.68272" height="7.68272" rx="0.96034" transform="rotate(-90 187.266 31.3569)" fill="#10101F"/>
<rect x="201.671" y="31.3569" width="7.68272" height="7.68272" rx="0.96034" transform="rotate(-90 201.671 31.3569)" fill="#10101F"/>
<rect x="216.076" y="31.3569" width="7.68272" height="7.68272" rx="0.96034" transform="rotate(-90 216.076 31.3569)" fill="#10101F"/>
<rect x="86.4307" y="42.8811" width="7.68272" height="7.68272" rx="1.92068" transform="rotate(-90 86.4307 42.8811)" fill="#10101F"/>
<rect x="100.836" y="42.8811" width="7.68272" height="7.68272" rx="1.92068" transform="rotate(-90 100.836 42.8811)" fill="#10101F"/>
<rect x="115.241" y="42.8811" width="7.68272" height="7.68272" rx="1.92068" transform="rotate(-90 115.241 42.8811)" fill="#10101F"/>
<rect x="129.646" y="42.8811" width="7.68272" height="7.68272" rx="1.92068" transform="rotate(-90 129.646 42.8811)" fill="#10101F"/>
<rect x="144.051" y="42.8811" width="7.68272" height="7.68272" rx="1.92068" transform="rotate(-90 144.051 42.8811)" fill="#10101F"/>
<rect x="158.456" y="42.8811" width="7.68272" height="7.68272" rx="1.92068" transform="rotate(-90 158.456 42.8811)" fill="#10101F"/>
<rect x="172.861" y="42.8811" width="7.68272" height="7.68272" rx="1.92068" transform="rotate(-90 172.861 42.8811)" fill="#10101F"/>
<rect x="187.266" y="42.8811" width="7.68272" height="7.68272" rx="1.92068" transform="rotate(-90 187.266 42.8811)" fill="#10101F"/>
<rect x="201.671" y="42.8811" width="7.68272" height="7.68272" rx="1.92068" transform="rotate(-90 201.671 42.8811)" fill="#10101F"/>
<rect x="216.076" y="42.8811" width="7.68272" height="7.68272" rx="1.92068" transform="rotate(-90 216.076 42.8811)" fill="#10101F"/>
<rect x="230.482" y="42.8811" width="7.68272" height="7.68272" rx="1.92068" transform="rotate(-90 230.482 42.8811)" fill="#10101F"/>
<rect x="244.887" y="42.8811" width="7.68272" height="7.68272" rx="1.92068" transform="rotate(-90 244.887 42.8811)" fill="#10101F"/>
<rect x="57.6204" y="54.405" width="7.68272" height="7.68272" rx="0.96034" transform="rotate(-90 57.6204 54.405)" fill="#10101F"/>
<rect x="72.0254" y="54.405" width="7.68272" height="7.68272" rx="0.96034" transform="rotate(-90 72.0254 54.405)" fill="#10101F"/>
<rect x="86.4307" y="54.405" width="7.68272" height="7.68272" rx="0.96034" transform="rotate(-90 86.4307 54.405)" fill="#10101F"/>
<rect x="100.836" y="54.405" width="7.68272" height="7.68272" rx="0.96034" transform="rotate(-90 100.836 54.405)" fill="#10101F"/>
<rect x="115.241" y="54.405" width="7.68272" height="7.68272" rx="0.96034" transform="rotate(-90 115.241 54.405)" fill="#10101F"/>
<rect x="129.646" y="54.405" width="7.68272" height="7.68272" rx="0.96034" transform="rotate(-90 129.646 54.405)" fill="#10101F"/>
<rect x="144.051" y="54.405" width="7.68272" height="7.68272" rx="0.96034" transform="rotate(-90 144.051 54.405)" fill="#10101F"/>
<rect x="158.456" y="54.405" width="7.68272" height="7.68272" rx="0.96034" transform="rotate(-90 158.456 54.405)" fill="#A381FF"/>
<rect x="172.861" y="54.405" width="7.68272" height="7.68272" rx="0.96034" transform="rotate(-90 172.861 54.405)" fill="#A381FF"/>
<rect x="187.266" y="54.405" width="7.68272" height="7.68272" rx="0.96034" transform="rotate(-90 187.266 54.405)" fill="#10101F"/>
<rect x="201.671" y="54.405" width="7.68272" height="7.68272" rx="0.96034" transform="rotate(-90 201.671 54.405)" fill="#10101F"/>
<rect x="216.076" y="54.405" width="7.68272" height="7.68272" rx="0.96034" transform="rotate(-90 216.076 54.405)" fill="#10101F"/>
<rect x="230.482" y="54.405" width="7.68272" height="7.68272" rx="0.96034" transform="rotate(-90 230.482 54.405)" fill="#10101F"/>
<rect x="244.887" y="54.405" width="7.68272" height="7.68272" rx="0.96034" transform="rotate(-90 244.887 54.405)" fill="#10101F"/>
<rect x="259.292" y="54.405" width="7.68272" height="7.68272" rx="0.96034" transform="rotate(-90 259.292 54.405)" fill="#10101F"/>
<rect x="273.697" y="54.405" width="7.68272" height="7.68272" rx="0.96034" transform="rotate(-90 273.697 54.405)" fill="#10101F"/>
<rect x="12.4844" y="66.8894" width="7.68272" height="7.68272" rx="0.96034" transform="rotate(-90 12.4844 66.8894)" fill="#10101F"/>
<rect x="26.8894" y="66.8894" width="7.68272" height="7.68272" rx="0.96034" transform="rotate(-90 26.8894 66.8894)" fill="#10101F" fill-opacity="0.8"/>
<rect x="41.2947" y="66.8894" width="7.68272" height="7.68272" rx="0.96034" transform="rotate(-90 41.2947 66.8894)" fill="#10101F" fill-opacity="0.8"/>
<rect x="55.6997" y="66.8894" width="7.68272" height="7.68272" rx="0.96034" transform="rotate(-90 55.6997 66.8894)" fill="#10101F" fill-opacity="0.8"/>
<rect x="70.1047" y="66.8894" width="7.68272" height="7.68272" rx="0.96034" transform="rotate(-90 70.1047 66.8894)" fill="#10101F" fill-opacity="0.8"/>
<rect x="84.51" y="66.8894" width="7.68272" height="7.68272" rx="0.96034" transform="rotate(-90 84.51 66.8894)" fill="#10101F" fill-opacity="0.8"/>
<rect x="98.915" y="66.8894" width="7.68272" height="7.68272" rx="0.96034" transform="rotate(-90 98.915 66.8894)" fill="#10101F" fill-opacity="0.8"/>
<rect x="113.32" y="66.8894" width="7.68272" height="7.68272" rx="0.96034" transform="rotate(-90 113.32 66.8894)" fill="#10101F" fill-opacity="0.8"/>
<rect x="127.725" y="66.8894" width="7.68272" height="7.68272" rx="0.96034" transform="rotate(-90 127.725 66.8894)" fill="#10101F" fill-opacity="0.8"/>
<rect x="142.13" y="66.8894" width="7.68272" height="7.68272" rx="0.96034" transform="rotate(-90 142.13 66.8894)" fill="#A381FF"/>
<rect x="156.535" y="66.8894" width="7.68272" height="7.68272" rx="0.96034" transform="rotate(-90 156.535 66.8894)" fill="#A381FF"/>
<rect x="170.94" y="66.8894" width="7.68272" height="7.68272" rx="0.96034" transform="rotate(-90 170.94 66.8894)" fill="#A381FF"/>
<rect x="185.346" y="66.8894" width="7.68272" height="7.68272" rx="0.96034" transform="rotate(-90 185.346 66.8894)" fill="#A381FF"/>
<rect x="199.751" y="66.8894" width="7.68272" height="7.68272" rx="0.96034" transform="rotate(-90 199.751 66.8894)" fill="#10101F"/>
<rect x="214.156" y="66.8894" width="7.68272" height="7.68272" rx="0.96034" transform="rotate(-90 214.156 66.8894)" fill="#10101F"/>
<rect x="228.561" y="66.8894" width="7.68272" height="7.68272" rx="0.96034" transform="rotate(-90 228.561 66.8894)" fill="#10101F"/>
<rect x="242.966" y="66.8894" width="7.68272" height="7.68272" rx="0.96034" transform="rotate(-90 242.966 66.8894)" fill="#10101F"/>
<rect x="257.371" y="66.8894" width="7.68272" height="7.68272" rx="0.96034" transform="rotate(-90 257.371 66.8894)" fill="#10101F"/>
<rect x="271.776" y="66.8894" width="7.68272" height="7.68272" rx="0.96034" transform="rotate(-90 271.776 66.8894)" fill="#10101F"/>
<rect x="286.181" y="66.8894" width="7.68272" height="7.68272" rx="0.96034" transform="rotate(-90 286.181 66.8894)" fill="#10101F"/>
<rect x="300.586" y="66.8894" width="7.68272" height="7.68272" rx="0.96034" transform="rotate(-90 300.586 66.8894)" fill="#10101F"/>
<rect y="79.374" width="7.68272" height="7.68272" rx="0.96034" transform="rotate(-90 0 79.374)" fill="#10101F"/>
<rect x="14.405" y="79.374" width="7.68272" height="7.68272" rx="0.96034" transform="rotate(-90 14.405 79.374)" fill="#10101F"/>
<rect x="28.8103" y="79.374" width="7.68272" height="7.68272" rx="0.96034" transform="rotate(-90 28.8103 79.374)" fill="#10101F"/>
<rect x="43.2153" y="79.374" width="7.68272" height="7.68272" rx="0.96034" transform="rotate(-90 43.2153 79.374)" fill="#10101F"/>
<rect x="57.6204" y="79.374" width="7.68272" height="7.68272" rx="0.96034" transform="rotate(-90 57.6204 79.374)" fill="#10101F"/>
<rect x="72.0254" y="79.374" width="7.68272" height="7.68272" rx="0.96034" transform="rotate(-90 72.0254 79.374)" fill="#10101F"/>
<rect x="86.4307" y="79.374" width="7.68272" height="7.68272" rx="0.96034" transform="rotate(-90 86.4307 79.374)" fill="#10101F"/>
<rect x="100.836" y="79.374" width="7.68272" height="7.68272" rx="0.96034" transform="rotate(-90 100.836 79.374)" fill="#10101F"/>
<rect x="115.241" y="79.374" width="7.68272" height="7.68272" rx="0.96034" transform="rotate(-90 115.241 79.374)" fill="#10101F"/>
<rect x="129.646" y="79.374" width="7.68272" height="7.68272" rx="0.96034" transform="rotate(-90 129.646 79.374)" fill="#A381FF"/>
<rect x="144.051" y="79.374" width="7.68272" height="7.68272" rx="0.96034" transform="rotate(-90 144.051 79.374)" fill="#A381FF"/>
<rect x="158.456" y="79.374" width="7.68272" height="7.68272" rx="0.96034" transform="rotate(-90 158.456 79.374)" fill="#A381FF"/>
<rect x="172.861" y="79.374" width="7.68272" height="7.68272" rx="0.96034" transform="rotate(-90 172.861 79.374)" fill="#A381FF"/>
<rect x="187.266" y="79.374" width="7.68272" height="7.68272" rx="0.96034" transform="rotate(-90 187.266 79.374)" fill="#A381FF"/>
<rect x="201.671" y="79.374" width="7.68272" height="7.68272" rx="0.96034" transform="rotate(-90 201.671 79.374)" fill="#A381FF"/>
<rect x="216.076" y="79.374" width="7.68272" height="7.68272" rx="0.96034" transform="rotate(-90 216.076 79.374)" fill="#10101F"/>
<rect x="230.482" y="79.374" width="7.68272" height="7.68272" rx="0.96034" transform="rotate(-90 230.482 79.374)" fill="#10101F"/>
<rect x="244.887" y="79.374" width="7.68272" height="7.68272" rx="0.96034" transform="rotate(-90 244.887 79.374)" fill="#10101F"/>
<rect x="259.292" y="79.374" width="7.68272" height="7.68272" rx="0.96034" transform="rotate(-90 259.292 79.374)" fill="#10101F"/>
<rect x="273.697" y="79.374" width="7.68272" height="7.68272" rx="0.96034" transform="rotate(-90 273.697 79.374)" fill="#10101F"/>
<rect x="288.102" y="79.374" width="7.68272" height="7.68272" rx="0.96034" transform="rotate(-90 288.102 79.374)" fill="#10101F"/>
<rect x="302.507" y="79.374" width="7.68272" height="7.68272" rx="0.96034" transform="rotate(-90 302.507 79.374)" fill="#10101F"/>
<rect x="316.912" y="79.374" width="7.68272" height="7.68272" rx="0.96034" transform="rotate(-90 316.912 79.374)" fill="#10101F"/>
<rect x="331.317" y="79.374" width="7.68272" height="7.68272" rx="0.96034" transform="rotate(-90 331.317 79.374)" fill="#10101F"/>
</svg>
