<svg width="119" height="125" viewBox="0 0 119 125" fill="none" xmlns="http://www.w3.org/2000/svg">
<path d="M2.55478 61.066L56.7551 31.2702C57.6309 30.7888 58.6889 30.7751 59.5769 31.2336L117.377 61.0824C118.374 61.5973 119 62.6257 119 63.7479V130.423C119 131.495 118.428 132.486 117.5 133.021L59.7039 166.379C58.7503 166.93 57.5718 166.914 56.6338 166.337L2.42952 133.034C1.54124 132.488 1 131.52 1 130.478V63.695C1 62.6007 1.59583 61.5932 2.55478 61.066Z" fill="#5739EF" stroke="#A280FF" stroke-width="0.5"/>
<path d="M116.318 65.3633L60.0599 97.2697C59.7581 97.4409 59.3891 97.4434 59.085 97.2763L1 65.3633" stroke="#A280FF" stroke-opacity="0.29" stroke-width="0.5"/>
<path d="M59.9999 97.5459V164.591" stroke="#A280FF" stroke-opacity="0.29" stroke-width="0.5"/>
<path d="M59.9999 62.6816V80.1135" stroke="#A280FF" stroke-opacity="0.29" stroke-width="0.5"/>
<path d="M6.36365 31.8413L59.5241 63.7376C59.8201 63.9152 60.1868 63.9276 60.4941 63.7703L117.659 34.5231" stroke="#A280FF" stroke-opacity="0.29" stroke-width="0.5"/>
<path d="M117.659 35.0981V48.6735C117.659 49.0424 117.456 49.3814 117.131 49.5553L60.4892 79.852C60.1849 80.0147 59.8182 80.0091 59.5191 79.8371L6.86518 49.5611C6.55491 49.3827 6.36365 49.0521 6.36365 48.6942V32.4194C6.36365 32.0615 6.55491 31.7309 6.86518 31.5525L59.4988 1.28821C59.8089 1.1099 60.1906 1.11082 60.4999 1.29061L117.162 34.2336C117.47 34.4126 117.659 34.7419 117.659 35.0981Z" fill="#9C8FFF" fill-opacity="0.17" stroke="#A280FF" stroke-width="0.5"/>
</svg>
