<svg width="1169" height="118" viewBox="0 0 1169 118" fill="none" xmlns="http://www.w3.org/2000/svg">
<path d="M1084.85 91.7985C1098.85 96.1757 1095.7 116.831 1081.03 116.831L83.0608 116.831C68.5114 116.831 65.228 96.4253 79.043 91.8613L350.362 2.22629C351.658 1.79805 353.014 1.57979 354.38 1.57979L794.351 1.57983C795.648 1.57983 796.936 1.77662 798.174 2.16346L1084.85 91.7985Z" stroke="#462E8E" stroke-width="1.11376"/>
<path d="M576.039 117.388L576.039 1.41373" stroke="#462E8E" stroke-width="1.11376"/>
<path d="M690.303 117.388L614.464 1.41372" stroke="#462E8E" stroke-width="1.11376"/>
<path d="M462.332 117.388L538.171 1.41373" stroke="#462E8E" stroke-width="1.11376"/>
<path d="M836.659 117.388L635.882 1.00025" stroke="#462E8E" stroke-width="1.11376"/>
<path d="M299.527 117.388L500.303 1.00029" stroke="#462E8E" stroke-width="1.11376"/>
<path d="M1014.86 117.388L689.728 1.20697" stroke="#462E8E" stroke-width="1.11376"/>
<path d="M171.831 117.388L430.137 1.20702" stroke="#462E8E" stroke-width="1.11376"/>
<path d="M1051.15 82.0264L105.226 82.0263" stroke="#462E8E" stroke-width="1.11376"/>
<path d="M938.17 45.842L213.774 45.842" stroke="#462E8E" stroke-width="1.11376"/>
</svg>
