<svg width="239" height="40" viewBox="0 0 239 40" fill="none" xmlns="http://www.w3.org/2000/svg">
<g clip-path="url(#clip0_874_125)">
<path d="M209.223 32.1277V12.2156H214.441V15.7599H214.69C215.106 14.5844 215.799 13.6582 216.773 12.9815C217.747 12.3047 218.904 11.9662 220.246 11.9662C221.612 11.9662 222.769 12.3106 223.719 12.9993C224.68 13.6761 225.321 14.5963 225.642 15.7599H225.856C226.26 14.6082 226.995 13.688 228.065 12.9993C229.133 12.3106 230.391 11.9662 231.84 11.9662C233.691 11.9662 235.199 12.5541 236.363 13.7296C237.539 14.905 238.126 16.5733 238.126 18.7342V32.1277H232.606V19.8385C232.606 18.7223 232.309 17.8912 231.715 17.3451C231.133 16.7988 230.403 16.5258 229.525 16.5258C228.527 16.5258 227.744 16.8463 227.174 17.4875C226.616 18.1169 226.337 18.948 226.337 19.981V32.1277H220.994V19.696C220.994 18.7342 220.715 17.9684 220.157 17.3984C219.599 16.8167 218.869 16.5258 217.967 16.5258C217.349 16.5258 216.797 16.6801 216.311 16.9889C215.824 17.2976 215.438 17.725 215.153 18.2712C214.868 18.8055 214.725 19.4466 214.725 20.1947V32.1277H209.223Z" fill="white"/>
<path d="M201.373 23.6678V12.2156H206.875V32.1277H201.586V28.5122H201.373C200.922 29.664 200.18 30.602 199.146 31.3263C198.113 32.0388 196.849 32.389 195.354 32.3771C194.023 32.3771 192.849 32.0803 191.827 31.4866C190.818 30.881 190.028 30.0202 189.459 28.904C188.901 27.7879 188.622 26.4521 188.622 24.8967V12.2156H194.125V23.935C194.125 25.0986 194.439 26.0247 195.069 26.7134C195.698 27.3902 196.535 27.7227 197.58 27.7108C198.244 27.7108 198.862 27.5624 199.431 27.2655C200.001 26.9568 200.464 26.4996 200.82 25.8941C201.188 25.2885 201.373 24.5465 201.373 23.6678Z" fill="white"/>
<path d="M186.756 17.8972L181.715 18.1999C181.584 17.5706 181.234 17.0304 180.664 16.5792C180.095 16.1161 179.329 15.8846 178.367 15.8846C177.513 15.8846 176.795 16.0627 176.212 16.4189C175.643 16.7751 175.358 17.2501 175.358 17.8437C175.358 18.3187 175.542 18.7283 175.91 19.0727C176.289 19.4052 176.937 19.6663 177.851 19.8563L181.466 20.5688C183.402 20.9606 184.844 21.5958 185.794 22.4744C186.744 23.3531 187.218 24.5108 187.218 25.9475C187.218 27.2655 186.838 28.4173 186.079 29.4027C185.319 30.3764 184.274 31.1423 182.944 31.7003C181.615 32.2464 180.089 32.5196 178.367 32.5196C175.731 32.5196 173.63 31.9674 172.063 30.8632C170.507 29.7589 169.599 28.2628 169.339 26.3749L174.734 26.09C174.913 26.8974 175.316 27.5089 175.945 27.9245C176.575 28.34 177.382 28.5478 178.367 28.5478C179.329 28.5478 180.106 28.3579 180.701 27.9779C181.305 27.598 181.609 27.1171 181.609 26.5352C181.609 25.5498 180.754 24.8848 179.044 24.5405L175.607 23.8281C173.672 23.4362 172.229 22.7654 171.279 21.8155C170.33 20.8656 169.855 19.6485 169.855 18.1643C169.855 16.882 170.205 15.7778 170.905 14.8516C171.606 13.9255 172.585 13.213 173.844 12.7143C175.115 12.2156 176.599 11.9662 178.296 11.9662C180.813 11.9662 182.79 12.5006 184.226 13.5693C185.675 14.626 186.518 16.0686 186.756 17.8972Z" fill="white"/>
<path d="M149.343 39.5725V12.2156H154.757V15.5819H155.006C155.255 15.0356 155.611 14.4835 156.075 13.9255C156.537 13.3674 157.143 12.9043 157.891 12.5362C158.639 12.1563 159.565 11.9662 160.669 11.9662C162.13 11.9662 163.465 12.3462 164.676 13.1061C165.899 13.8541 166.879 14.9881 167.614 16.508C168.351 18.0278 168.718 19.9276 168.718 22.2073C168.718 24.4158 168.362 26.2859 167.65 27.8176C166.938 29.3375 165.97 30.4892 164.747 31.2729C163.536 32.0565 162.171 32.4483 160.651 32.4483C159.583 32.4483 158.675 32.2702 157.926 31.9141C157.179 31.5578 156.567 31.1126 156.092 30.5782C155.629 30.032 155.267 29.4859 155.006 28.9397H154.846V39.5725H149.343ZM158.906 28.0669C159.808 28.0669 160.568 27.8176 161.185 27.3189C161.803 26.8202 162.272 26.1315 162.592 25.2529C162.913 24.3623 163.073 23.3413 163.073 22.1895C163.073 21.0378 162.913 20.0285 162.592 19.1618C162.284 18.283 161.821 17.5944 161.203 17.0957C160.586 16.597 159.82 16.3477 158.906 16.3477C158.016 16.3477 157.256 16.591 156.627 17.0779C156.009 17.5529 155.534 18.2297 155.202 19.1083C154.882 19.975 154.721 21.0021 154.721 22.1895C154.721 23.365 154.888 24.3921 155.219 25.2707C155.552 26.1494 156.027 26.8381 156.644 27.3367C157.274 27.8235 158.028 28.0669 158.906 28.0669Z" fill="white"/>
<path d="M141.493 32.1277V12.2156H146.996V32.1277H141.493ZM144.235 9.66874C143.416 9.66874 142.715 9.39564 142.134 8.84945C141.552 8.30326 141.262 7.64428 141.262 6.87249C141.262 6.1007 141.552 5.44765 142.134 4.91333C142.715 4.36715 143.416 4.09406 144.235 4.09406C145.066 4.09406 145.772 4.36715 146.355 4.91333C146.936 5.44765 147.227 6.1007 147.227 6.87249C147.227 7.64428 146.936 8.30326 146.355 8.84945C145.772 9.39564 145.066 9.66874 144.235 9.66874Z" fill="white"/>
<path d="M130.17 32.5196C128.163 32.5196 126.424 32.0921 124.952 31.2372C123.492 30.3704 122.364 29.1712 121.568 27.6395C120.785 26.0959 120.394 24.303 120.394 22.2608C120.394 20.1947 120.785 18.3959 121.568 16.8642C122.364 15.3206 123.492 14.1214 124.952 13.2664C126.424 12.3997 128.163 11.9662 130.17 11.9662C132.188 11.9662 133.928 12.3997 135.388 13.2664C136.86 14.1214 137.988 15.3206 138.771 16.8642C139.567 18.3959 139.965 20.1947 139.965 22.2608C139.965 24.303 139.567 26.0959 138.771 27.6395C137.988 29.1712 136.86 30.3704 135.388 31.2372C133.928 32.0921 132.188 32.5196 130.17 32.5196ZM130.205 28.2095C131.12 28.2095 131.886 27.9542 132.503 27.4436C133.12 26.9212 133.583 26.2087 133.892 25.3063C134.213 24.4039 134.373 23.3769 134.373 22.2251C134.373 21.0615 134.213 20.0344 133.892 19.1439C133.583 18.2534 133.12 17.5529 132.503 17.0422C131.886 16.5317 131.12 16.2764 130.205 16.2764C129.279 16.2764 128.502 16.5317 127.873 17.0422C127.255 17.5529 126.786 18.2534 126.466 19.1439C126.157 20.0344 126.003 21.0615 126.003 22.2251C126.003 23.3769 126.157 24.4039 126.466 25.3063C126.786 26.2087 127.255 26.9212 127.873 27.4436C128.502 27.9542 129.279 28.2095 130.205 28.2095Z" fill="white"/>
<path d="M109.16 40C106.476 40 104.375 39.4657 102.855 38.397C101.335 37.3403 100.409 36.0222 100.077 34.4431L105.171 33.7663C105.325 34.1701 105.568 34.544 105.9 34.8884C106.233 35.2327 106.678 35.5058 107.236 35.7076C107.794 35.9214 108.477 36.0282 109.284 36.0282C110.483 36.0282 111.474 35.7374 112.258 35.1555C113.042 34.5856 113.433 33.6179 113.433 32.2524V28.6013H113.202C112.964 29.1474 112.602 29.6699 112.115 30.1686C111.629 30.6673 111.005 31.071 110.245 31.3797C109.485 31.6884 108.577 31.8427 107.521 31.8427C106.025 31.8427 104.665 31.4984 103.443 30.8098C102.232 30.1093 101.258 29.0406 100.522 27.6039C99.7976 26.1671 99.4357 24.3505 99.4357 22.1539C99.4357 19.8861 99.8035 17.9981 100.54 16.4901C101.288 14.9821 102.273 13.8541 103.496 13.1061C104.719 12.3462 106.06 11.9662 107.521 11.9662C108.637 11.9662 109.569 12.1563 110.317 12.5362C111.076 12.9043 111.694 13.3674 112.169 13.9255C112.644 14.4835 113 15.0356 113.237 15.5819H113.451V12.2156H118.883V32.3415C118.883 34.0275 118.467 35.4405 117.637 36.5804C116.806 37.7202 115.659 38.5751 114.199 39.1451C112.739 39.715 111.059 40 109.16 40ZM109.266 27.693C110.596 27.693 111.623 27.2002 112.348 26.2146C113.083 25.2292 113.451 23.8637 113.451 22.1182C113.451 20.9546 113.285 19.9454 112.952 19.0904C112.632 18.2237 112.163 17.5529 111.546 17.0779C110.928 16.591 110.168 16.3477 109.266 16.3477C108.364 16.3477 107.598 16.597 106.969 17.0957C106.351 17.5825 105.883 18.2593 105.562 19.1261C105.242 19.9929 105.081 20.9902 105.081 22.1182C105.081 23.2582 105.242 24.2496 105.562 25.0926C105.883 25.9238 106.351 26.565 106.969 27.0161C107.598 27.4673 108.364 27.693 109.266 27.693Z" fill="white"/>
<path d="M88.9323 32.5196C86.9259 32.5196 85.1865 32.0921 83.7144 31.2372C82.254 30.3704 81.1262 29.1712 80.3307 27.6395C79.5472 26.0959 79.1553 24.303 79.1553 22.2608C79.1553 20.1947 79.5472 18.3959 80.3307 16.8642C81.1262 15.3206 82.254 14.1214 83.7144 13.2664C85.1865 12.3997 86.9259 11.9662 88.9323 11.9662C90.9506 11.9662 92.69 12.3997 94.1503 13.2664C95.6224 14.1214 96.7503 15.3206 97.5339 16.8642C98.3295 18.3959 98.7275 20.1947 98.7275 22.2608C98.7275 24.303 98.3295 26.0959 97.5339 27.6395C96.7503 29.1712 95.6224 30.3704 94.1503 31.2372C92.69 32.0921 90.9506 32.5196 88.9323 32.5196ZM88.9679 28.2095C89.8821 28.2095 90.6479 27.9542 91.2652 27.4436C91.8826 26.9212 92.3457 26.2087 92.6543 25.3063C92.9749 24.4039 93.1352 23.3769 93.1352 22.2251C93.1352 21.0615 92.9749 20.0344 92.6543 19.1439C92.3457 18.2534 91.8826 17.5529 91.2652 17.0422C90.6479 16.5317 89.8821 16.2764 88.9679 16.2764C88.0419 16.2764 87.2643 16.5317 86.635 17.0422C86.0177 17.5529 85.5486 18.2534 85.2281 19.1439C84.9194 20.0344 84.7651 21.0615 84.7651 22.2251C84.7651 23.3769 84.9194 24.4039 85.2281 25.3063C85.5486 26.2087 86.0177 26.9212 86.635 27.4436C87.2643 27.9542 88.0419 28.2095 88.9679 28.2095Z" fill="white"/>
<path d="M61.4572 32.1277V5.59015H67.0491V27.497H78.4288V32.1277H61.4572Z" fill="white"/>
<path d="M36.4789 39.0244C42.7542 38.8965 47.8 33.7632 47.8 27.4526C47.8 24.3835 46.5818 21.4402 44.4132 19.2701L25.1579 0V11.9777C25.1579 13.9808 25.9531 15.902 27.3685 17.3184L31.8792 21.8326L31.8915 21.8446L39.4547 29.4137C39.7003 29.6594 39.7003 30.058 39.4547 30.3037C39.2092 30.5496 38.8109 30.5496 38.5653 30.3037L35.9583 27.6947H11.8417L9.23472 30.3037C8.98909 30.5496 8.59087 30.5496 8.34526 30.3037C8.09963 30.058 8.09963 29.6594 8.34525 29.4137L15.9085 21.8446L15.9208 21.8326L20.4315 17.3184C21.8469 15.902 22.6421 13.9808 22.6421 11.9777V0L3.38673 19.2701C1.21824 21.4402 0 24.3835 0 27.4526C0 33.7632 5.04585 38.8965 11.3211 39.0244H36.4789Z" fill="white"/>
</g>
<defs>
<clipPath id="clip0_874_125">
<rect width="239" height="40" fill="white"/>
</clipPath>
</defs>
</svg>
